<svg xmlns="http://www.w3.org/2000/svg" width="128" height="128" viewBox="0 0 128 128">
  <g id="组_6"  transform="translate(0 0.146)">
    <rect id="矩形_4"  width="128" height="128" transform="translate(0 -0.146)" fill="#fff" opacity="0"/>
    <g id="pag-a-title-top-btn-logo" transform="translate(8.988 21.304)">
      <path id="路径_1"  d="M105.607,167.581a17.1,17.1,0,0,1-16.782-16.107,17.734,17.734,0,0,1,4.932-12.863,17.047,17.047,0,0,1,6.743-4.093.4.4,0,0,0,0-.767,29.077,29.077,0,0,1-7.511-3.07.378.378,0,0,0-.348,0c-2.824,1.566-11.8,8.186-11.5,20.1a23.535,23.535,0,0,0,7.705,17.478,25.777,25.777,0,0,0,17.4,6.334c7.04,0,13.3-2.681,17.13-6.478.573-.573,1.115-1.146,1.617-1.75a.389.389,0,0,0,0-.532l-4.625-4.81a.409.409,0,0,0-.614,0A17.14,17.14,0,0,1,105.607,167.581Z" transform="translate(-81.133 -93.882)"/>
      <path id="路径_2"  d="M136.788,111.5a.409.409,0,0,1,.43.4c.123,7.624.389,32.449.389,32.49,0,5.485-.563,9.138-3.479,9.639-2.128.368-3.929-1.105-4.646-4.513-2.865-13.62-10.1-18.051-12.474-19.156a31.077,31.077,0,0,0-11.543-2.845,13.487,13.487,0,0,1-12.648-12.8,12.617,12.617,0,0,1,3.7-9.21,13.129,13.129,0,0,1,18.348,0,14.05,14.05,0,0,1,3.633,9.21,12.607,12.607,0,0,1-7.163,11.6.4.4,0,0,0,.092.757,24.149,24.149,0,0,1,6.437,2.579.409.409,0,0,0,.43,0,18.8,18.8,0,0,0,7.92-15.677,17.723,17.723,0,0,0-5.822-13.61,20.6,20.6,0,0,0-14.7-5.618,20.619,20.619,0,0,0-14.715,5.618,18.276,18.276,0,0,0-5.945,13.855c0,5.464,2.149,9.865,5.925,13.763,5.577,5.751,13.426,5.792,17.683,6.682,3.888.819,5.423,1.4,8.371,3.827a17.079,17.079,0,0,1,6.078,10.233c1.248,6.222,1.74,9.619,5.116,11.553,10.53,5.956,15.759-4.093,15.759-6.355V102.548c0-.328-.583-.522-.849-.317l-11.256,8.729a.4.4,0,0,0,.266.716Z" transform="translate(-81.042 -94.718)"/>
      <path id="路径_3"  d="M154.692,139.714a17.56,17.56,0,0,1,9.128-4.891c4.267-.89,12.28-1.115,17.816-6.866,3.776-3.9,5.925-8.3,5.925-13.763a18.276,18.276,0,0,0-5.945-13.855,22.062,22.062,0,0,0-29.42,0,17.673,17.673,0,0,0-5.812,13.61,18.778,18.778,0,0,0,7.91,15.677.409.409,0,0,0,.43,0,24.262,24.262,0,0,1,6.447-2.579.4.4,0,0,0,.082-.757,12.586,12.586,0,0,1-7.163-11.6,14.039,14.039,0,0,1,3.622-9.21,13.129,13.129,0,0,1,18.348,0,12.577,12.577,0,0,1,3.7,9.21,13.5,13.5,0,0,1-3.94,9.445c-2.65,2.64-5.628,3.285-8.913,3.5-7.777.512-17.959,4.738-21.95,13.078a.4.4,0,0,0,0,.184l.072,13.528a.409.409,0,0,0,.778.174C147.457,151.011,150.783,143.357,154.692,139.714Z" transform="translate(-82.855 -94.718)"/>
      <path id="路径_4"  d="M180.056,130.711c2.835,1.566,12.279,8.186,12.024,20.046a23.536,23.536,0,0,1-8,17.4,25.05,25.05,0,0,1-17.14,6.447,25.785,25.785,0,0,1-14.152-4.093.42.42,0,0,0-.5,0l-8.278,7.736a.409.409,0,0,1-.573,0l-3.96-4.257a.4.4,0,0,1,0-.563l13.2-12.443a.4.4,0,0,1,.594.051,19.463,19.463,0,0,0,2.579,2.661,16.485,16.485,0,0,0,11.737,3.888,16.015,16.015,0,0,0,11.881-5.116,15.719,15.719,0,0,0,4.707-10.99,17.7,17.7,0,0,0-4.973-12.822,17.2,17.2,0,0,0-6.836-4.093.4.4,0,0,1,0-.767,40.345,40.345,0,0,0,7.327-3.07A.379.379,0,0,1,180.056,130.711Z" transform="translate(-82.985 -93.881)"/>
    </g>
  </g>
</svg>
